# xmcd
#
# Track frame offsets: 
#        183
#        19590
#        42740
#
# Disc length: 946 seconds
#
# Revision: 1
# Processed by: cddbd v1.5.2PL0 Copyright (c) Steve Scherf et al.
# Submitted via: ExactAudioCopyFreeDBPlugin 1.0
#
DISCID=1f03b003
DTITLE=B.B.King - The Blues Come Over Me
DYEAR=1992
DGENRE=Blues
TTITLE0=The Blues Come Over Me (FF Now Mix Edit)
TTITLE1=The Blues Come Over Me (Integrity Mix)
TTITLE2=The Blues Come Over Me (Wild And Bluesy Club Mix)
EXTD=
EXTT0=
EXTT1=
EXTT2=
PLAYORDER=
